osimModel_states
version=1
nRows=17
nColumns=17
inDegrees=yes

# SIMM Motion File Header:
name osimModel_states
datacolumns 17
datarows 17
otherdata 1
range 0.97908968 1.04979411
endheader
time	blockToGround_xRotation	blockToGround_yRotation	blockToGround_zRotation	blockToGround_xTranslation	blockToGround_yTranslation	blockToGround_zTranslation	blockToGround_xRotation_u	blockToGround_yRotation_u	blockToGround_zRotation_u	blockToGround_xTranslation_u	blockToGround_yTranslation_u	blockToGround_zTranslation_u	muscle1.activation	muscle1.fiber_length	muscle2.activation	muscle2.fiber_length
      0.97908968	     -0.23802210	      0.01373732	      0.00439881	     -0.00004358	     -0.00019554	      0.05799531	     -2.24137453	     -0.25698531	      0.73017012	     -0.00030423	      0.03269183	     -0.05123488	      0.09078734	      0.15588873	      0.00125202	      0.04186562
      0.98285722	     -0.24237416	      0.01277560	      0.00710423	     -0.00004482	     -0.00008553	      0.05779215	      0.03726873	     -0.24668927	      0.70281091	     -0.00034934	      0.02284480	     -0.05730195	      0.09359333	      0.15566156	      0.00113948	      0.04206255
      0.98662476	     -0.23800891	      0.01186102	      0.00965396	     -0.00004618	     -0.00003786	      0.05756008	      2.23349205	     -0.23223649	      0.64779749	     -0.00036808	      0.00145408	     -0.06612960	      0.09638502	      0.15542122	      0.00103706	      0.04227586
      0.99138476	     -0.22110802	      0.01080511	      0.01248264	     -0.00004797	     -0.00009894	      0.05721810	      4.87408527	     -0.20365745	      0.52979741	     -0.00038088	     -0.02556319	     -0.07714361	      0.09986807	      0.15508218	      0.00092071	      0.04258552
      0.99497696	     -0.20040762	      0.01013423	      0.01410571	     -0.00004934	     -0.00020968	      0.05693059	      6.37615708	     -0.16329332	      0.36219388	     -0.00038371	     -0.03311360	     -0.08219032	      0.10245295	      0.15479631	      0.00084163	      0.04285146
      1.00085009	     -0.16777837	      0.00942456	      0.01520604	     -0.00005149	     -0.00034236	      0.05644758	      3.89223716	     -0.07561420	      0.00960259	     -0.00033373	     -0.00576708	     -0.08082742	      0.10660488	      0.15429190	      0.00072670	      0.04332266
      1.00558583	     -0.15814320	      0.00923736	      0.01458494	     -0.00005286	     -0.00029054	      0.05607288	      0.35170067	     -0.00533551	     -0.26817243	     -0.00023835	      0.02559194	     -0.07802605	      0.10991526	      0.15388033	      0.00064556	      0.04370416
      1.01032156	     -0.16004548	      0.00936302	      0.01270913	     -0.00005376	     -0.00014305	      0.05569712	     -0.54610957	      0.05379072	     -0.51848723	     -0.00015049	      0.03092032	     -0.08213717	      0.11321303	      0.15347438	      0.00057348	      0.04407926
      1.01383310	     -0.15988451	      0.00961067	      0.01063955	     -0.00005422	     -0.00006029	      0.05539512	      0.74762560	      0.08095051	     -0.64892722	     -0.00011472	      0.01413016	     -0.09037541	      0.11564424	      0.15316622	      0.00052528	      0.04436681
      1.01734464	     -0.15482979	      0.00992953	      0.00821388	     -0.00005458	     -0.00005145	      0.05506065	      2.12263438	      0.09548054	     -0.72729774	     -0.00009140	     -0.00930764	     -0.10014965	      0.11804920	      0.15283867	      0.00048113	      0.04467696
      1.02353083	     -0.13546801	      0.01057646	      0.00344264	     -0.00005498	     -0.00020606	      0.05439665	      3.43760709	      0.10484382	     -0.79190365	     -0.00002485	     -0.03327175	     -0.11258638	      0.12218724	      0.15219464	      0.00041219	      0.04529657
      1.02971702	     -0.12639291	      0.01116851	     -0.00118515	     -0.00005476	     -0.00034348	      0.05369787	     -1.27169334	      0.07688524	     -0.67656685	      0.00009848	     -0.00434247	     -0.11168126	      0.12619710	      0.15148616	      0.00035313	      0.04598073
      1.03437788	     -0.14311905	      0.01143620	     -0.00394081	     -0.00005412	     -0.00028747	      0.05318452	     -5.59623114	      0.03213065	     -0.49515956	      0.00016886	      0.02618967	     -0.10922165	      0.12916739	      0.15094531	      0.00031429	      0.04649946
      1.03903875	     -0.17302525	      0.01145340	     -0.00571091	     -0.00005326	     -0.00014147	      0.05266867	     -6.50453147	     -0.02913270	     -0.25591926	      0.00019121	      0.03082503	     -0.11356675	      0.13211584	      0.15040863	      0.00027972	      0.04701316
      1.04210972	     -0.19110907	      0.01130680	     -0.00626877	     -0.00005267	     -0.00006569	      0.05230959	     -5.17859407	     -0.06613263	     -0.11240695	      0.00019187	      0.01697118	     -0.12066150	      0.13404256	      0.15004864	      0.00025905	      0.04735988
      1.04518069	     -0.20477354	      0.01105321	     -0.00641644	     -0.00005208	     -0.00004268	      0.05192633	     -3.71807860	     -0.09843094	      0.01329919	      0.00019000	     -0.00231004	     -0.12899736	      0.13594709	      0.14967413	      0.00023990	      0.04772356
      1.04979411	     -0.21650186	      0.01047795	     -0.00588696	     -0.00005122	     -0.00011620	      0.05130395	     -1.32355928	     -0.15101730	      0.22174949	      0.00018018	     -0.02744904	     -0.14021266	      0.13874888	      0.14907285	      0.00021377	      0.04831264
